<mxfile host="app.diagrams.net" modified="2023-05-04T18:31:40.772Z" agent="Mozilla/5.0 (X11; Linux x86_64) AppleWebKit/537.36 (KHTML, like Gecko) Chrome/112.0.0.0 Safari/537.36" etag="YVrlWhblqlyRSohs4Dv4" version="21.2.4" type="github">
  <diagram name="Page-1" id="SWJvdtQi_I85oQcG9lAE">
    <mxGraphModel dx="2074" dy="1118" grid="1" gridSize="10" guides="1" tooltips="1" connect="1" arrows="1" fold="1" page="1" pageScale="1" pageWidth="850" pageHeight="1100" math="0" shadow="0">
      <root>
        <mxCell id="0" />
        <mxCell id="1" parent="0" />
        <mxCell id="8nJYiIIYSTlW2Ok84LjC-2" value="" style="edgeStyle=orthogonalEdgeStyle;rounded=0;orthogonalLoop=1;jettySize=auto;html=1;" edge="1" parent="1" source="PT-G1VSfNcF728A1zNsx-2" target="8nJYiIIYSTlW2Ok84LjC-1">
          <mxGeometry relative="1" as="geometry" />
        </mxCell>
        <mxCell id="PT-G1VSfNcF728A1zNsx-2" value="" style="ellipse;shape=cloud;whiteSpace=wrap;html=1;" parent="1" vertex="1">
          <mxGeometry x="150" y="720" width="340" height="250" as="geometry" />
        </mxCell>
        <mxCell id="PT-G1VSfNcF728A1zNsx-7" style="edgeStyle=orthogonalEdgeStyle;rounded=0;orthogonalLoop=1;jettySize=auto;html=1;entryX=0.5;entryY=0;entryDx=0;entryDy=0;" parent="1" source="PT-G1VSfNcF728A1zNsx-3" target="PT-G1VSfNcF728A1zNsx-6" edge="1">
          <mxGeometry relative="1" as="geometry" />
        </mxCell>
        <mxCell id="PT-G1VSfNcF728A1zNsx-3" value="" style="shape=image;verticalLabelPosition=bottom;labelBackgroundColor=default;verticalAlign=top;aspect=fixed;imageAspect=0;image=data:image/svg+xml,PHN2ZyB4bWxuczp4bGluaz0iaHR0cDovL3d3dy53My5vcmcvMTk5OS94bGluayIgeG1sbnM9Imh0dHA6Ly93d3cudzMub3JnLzIwMDAvc3ZnIiB4bWw6c3BhY2U9InByZXNlcnZlIiBzdHlsZT0iZW5hYmxlLWJhY2tncm91bmQ6bmV3IDAgMCA2MDkuNyAzODYuMjsiIHZpZXdCb3g9IjAgMCA2MDkuNyAzODYuMiIgeT0iMHB4IiB4PSIwcHgiIGlkPSJMYXllcl8xIiB2ZXJzaW9uPSIxLjEiPiYjeGE7PHN0eWxlIHR5cGU9InRleHQvY3NzIj4mI3hhOwkuc3Qwe2ZpbGw6IzE3NWRkYzt9JiN4YTs8L3N0eWxlPiYjeGE7PHBhdGggZD0iTTQ0LjYsMzA3LjhjOC40LDAsMTUsMy4zLDE5LjgsOS45YzQuOCw2LjYsNy4yLDE1LjYsNy4yLDI3LjFjMCwxMS44LTIuNSwyMC45LTcuNCwyNy40JiMxMDsmIzk7Yy00LjksNi41LTExLjYsOS43LTIwLjEsOS43Yy04LjQsMC0xNS0zLTE5LjctOS4xSDIzbC0yLjYsNi4zYy0wLjQsMC45LTEuMywxLjUtMi4zLDEuNUg3LjNjLTEuNCwwLTIuNS0xLjEtMi41LTIuNXYtOTQuNCYjMTA7JiM5O2MwLTEuNCwxLjEtMi41LDIuNS0yLjVoMTQuNWMxLjQsMCwyLjUsMS4xLDIuNSwyLjV2MjAuNmMwLDIuOS0wLjMsNy42LTAuOCwxNC4xaDAuOEMyOC45LDMxMS40LDM1LjYsMzA3LjgsNDQuNiwzMDcuOHogTTM4LjMsMzIzLjQmIzEwOyYjOTtjLTQuOCwwLTguMywxLjUtMTAuNSw0LjRjLTIuMiwzLTMuNCw3LjgtMy40LDE0Ljd2Mi4xYzAsNy43LDEuMSwxMy4yLDMuNCwxNi41YzIuMywzLjMsNS45LDUsMTAuOCw1YzQsMCw3LjItMS44LDkuNi01LjUmIzEwOyYjOTtjMi40LTMuNywzLjUtOSwzLjUtMTYuMWMwLTctMS4yLTEyLjMtMy42LTE1LjhDNDUuNywzMjUuMiw0Mi40LDMyMy40LDM4LjMsMzIzLjR6IE0xMDMuNywzODAuNkg4OS4yYy0xLjQsMC0yLjUtMS4xLTIuNS0yLjV2LTY2LjUmIzEwOyYjOTtjMC0xLjQsMS4xLTIuNSwyLjUtMi41aDE0LjVjMS40LDAsMi41LDEuMSwyLjUsMi41djY2LjVDMTA2LjIsMzc5LjUsMTA1LjEsMzgwLjYsMTAzLjcsMzgwLjZ6IE0xNTYuOCwzNjYuNGMyLjksMCw2LjMtMC41LDEwLjItMS42JiMxMDsmIzk7YzEuMS0wLjMsMi4xLDAuNSwyLjEsMS42djExLjJjMCwwLjctMC40LDEuMy0xLDEuNWMtNC43LDEuOS0xMC4zLDIuOC0xNi45LDIuOGMtNy44LDAtMTMuNS0yLTE3LTUuOWMtMy42LTMuOS01LjMtOS44LTUuMy0xNy43JiMxMDsmIzk7di0zNC40aC03LjdjLTAuOSwwLTEuNy0wLjctMS43LTEuN3YtNi40YzAtMC4xLDAuMS0wLjMsMC4yLTAuNGwxMC41LTYuNGw1LjItMTRjMC4yLTAuNiwwLjktMS4xLDEuNi0xLjFoOS43YzAuOSwwLDEuNywwLjcsMS43LDEuNyYjMTA7JiM5O3YxMy41aDE5LjJjMC41LDAsMC44LDAuNCwwLjgsMC44djEyLjFjMCwwLjktMC43LDEuNy0xLjcsMS43aC0xOC4zdjM0LjRjMCwyLjgsMC44LDQuOCwyLjMsNi4xJiMxMDsmIzk7QzE1Mi4xLDM2NS43LDE1NC4yLDM2Ni40LDE1Ni44LDM2Ni40eiBNMjQ3LjIsMzgwLjZjLTEuOCwwLTMuNS0xLjItNC0yLjlsLTE0LjItNDMuNWMtMS0zLjItMi4yLTcuOC0zLjgtMTMuOWgtMC40bC0xLjMsNC43JiMxMDsmIzk7bC0yLjksOS4zbC0xNC41LDQzLjRjLTAuNiwxLjctMi4yLDIuOS00LDIuOWwwLDBjLTEuOSwwLTMuNi0xLjMtNC4xLTMuMWwtMTcuOS02Mi40Yy0wLjYtMiwwLjktMy45LDMtMy45aDAuM2MxLjQsMCwyLjYsMC45LDMsMi4zJiMxMDsmIzk7bDEwLjUsMzhjMi42LDEwLDQuMywxNy4zLDUuMSwyMmgwLjRjMi41LTEwLDQuMy0xNi42LDUuNS0xOS45bDEzLjQtMzkuN2MwLjUtMS42LDIuMS0yLjcsMy44LTIuN2wwLDBjMS43LDAsMy4zLDEuMSwzLjgsMi44JiMxMDsmIzk7bDEyLjcsMzkuNWMzLjEsMTAsNC45LDE2LjYsNS42LDE5LjloMC40YzAuMy0yLjgsMi0xMC4yLDUuMS0yMi4ybDEwLTM3LjZjMC40LTEuMywxLjYtMi4zLDMtMi4zaDBjMiwwLDMuNSwxLjksMywzLjlsLTE2LjksNjIuNCYjMTA7JiM5O2MtMC41LDEuOC0yLjIsMy4xLTQuMSwzLjFIMjQ3LjJ6IE0zMjYuOSwzODAuNmMtMS4yLDAtMi4zLTAuOS0yLjUtMi4xbC0xLjMtOC44aC0wLjVjLTMuNSw0LjUtNy4xLDcuNi0xMC44LDkuNSYjMTA7JiM5O2MtMy43LDEuOS04LDIuOC0xMy4xLDIuOGMtNi44LDAtMTIuMS0xLjctMTUuOS01LjJjLTMuNC0zLjEtNS4yLTcuMy01LjYtMTIuNWMtMC41LTYuOSwyLjQtMTMuNyw4LjEtMTcuNiYjMTA7JiM5O2M1LjctMy45LDEzLjktNS45LDI0LjgtNi4xbDEzLjItMC40di00LjZjMC02LjYtMS4zLTExLjYtNC0xNC45Yy0yLjctMy40LTctNS0xMy01Yy01LjYsMC0xMS4zLDEuMy0xNy4zLDRjLTEuNSwwLjctMy4zLDAtMy45LTEuNSYjMTA7JiM5O2wwLDBjLTAuNi0xLjUsMC4xLTMuMiwxLjYtMy45YzYuNy0yLjgsMTMuMy00LjIsMTkuOS00LjJjNy42LDAsMTMuMywyLDE3LjEsNS45YzMuOCw0LDUuNywxMC4xLDUuNywxOC41djQzLjcmIzEwOyYjOTtDMzI5LjQsMzc5LjUsMzI4LjMsMzgwLjYsMzI2LjksMzgwLjZMMzI2LjksMzgwLjZ6IE0yOTkuMiwzNzYuMWM3LjQsMCwxMy4zLTIuMSwxNy41LTYuNGM0LjMtNC4yLDYuNC0xMC4xLDYuNC0xNy43di02LjhsLTEyLjEsMC41JiMxMDsmIzk7Yy05LjgsMC41LTE2LjcsMi0yMC45LDQuNmMtNC4yLDIuNi02LjIsNi42LTYuMiwxMmMwLDQuMywxLjMsNy43LDQsMTAuMUMyOTAuNiwzNzQuOSwyOTQuNCwzNzYuMSwyOTkuMiwzNzYuMXogTTM3OC43LDMwOS44JiMxMDsmIzk7YzIsMCw0LjEsMC4xLDYuMywwLjRjMS43LDAuMiwyLjksMS45LDIuNSwzLjZ2MGMtMC4zLDEuNi0xLjksMi42LTMuNSwyLjRjLTItMC4zLTQtMC41LTYuMS0wLjVjLTUuOSwwLTEwLjgsMi41LTE0LjYsNy41JiMxMDsmIzk7Yy0zLjgsNS01LjcsMTEuNC01LjcsMTl2MzUuMmMwLDEuNy0xLjQsMy4yLTMuMiwzLjJoMGMtMS43LDAtMy4yLTEuNC0zLjItMy4ydi02My41YzAtMS41LDEuMi0yLjgsMi44LTIuOGwwLDAmIzEwOyYjOTtjMS41LDAsMi43LDEuMSwyLjcsMi42bDAuNSw5LjloMC40YzIuOS01LjEsNS45LTguNyw5LjEtMTAuOEMzNzAuMiwzMTAuOSwzNzQuMSwzMDkuOCwzNzguNywzMDkuOHogTTQyNS45LDMwOS44JiMxMDsmIzk7YzUsMCw5LjQsMC45LDEzLDIuN2MzLjcsMS44LDYuOSw1LDkuOCw5LjRoMC40Yy0wLjMtNS40LTAuNC0xMC42LTAuNC0xNS44di0yMS44YzAtMS43LDEuNC0zLjEsMy4xLTMuMWwwLDBjMS43LDAsMy4xLDEuNCwzLjEsMy4xJiMxMDsmIzk7djk0YzAsMS4yLTEsMi4yLTIuMiwyLjJsMCwwYy0xLjEsMC0yLTAuOC0yLjItMS45bC0xLjMtOC43aC0wLjVjLTUuMyw3LjktMTIuOSwxMS45LTIyLjcsMTEuOWMtOS42LDAtMTYuOS0zLTIyLTguOSYjMTA7JiM5O2MtNS4xLTYtNy42LTE0LjctNy42LTI2LjFjMC0xMiwyLjUtMjEuMiw3LjUtMjcuNUM0MDksMzEzLDQxNi4zLDMwOS44LDQyNS45LDMwOS44eiBNNDI1LjksMzE1LjZjLTcuNiwwLTEzLjMsMi43LTE3LjEsOCYjMTA7JiM5O2MtMy44LDUuMy01LjcsMTMuMS01LjcsMjMuMmMwLDE5LjcsNy42LDI5LjUsMjIuOSwyOS41YzcuOCwwLDEzLjYtMi4zLDE3LjItNi44YzMuNy00LjYsNS41LTEyLjEsNS41LTIyLjZ2LTEuMSYjMTA7JiM5O2MwLTEwLjctMS44LTE4LjUtNS40LTIzLjJDNDM5LjgsMzE3LjksNDMzLjksMzE1LjYsNDI1LjksMzE1LjZ6IE01MDYuNCwzODEuOWMtMTAuMSwwLTE4LTMuMS0yMy42LTkuM2MtNS42LTYuMi04LjUtMTQuOS04LjUtMjYuMSYjMTA7JiM5O2MwLTExLjEsMi43LTE5LjksOC4yLTI2LjZjNS41LTYuNywxMi44LTEwLDIyLTEwYzguMiwwLDE0LjYsMi45LDE5LjQsOC42YzQuNyw1LjcsNy4xLDEzLjUsNy4xLDIzLjN2NS4xaC01MCYjMTA7JiM5O2MwLjEsOS41LDIuMywxNi44LDYuNywyMS44YzQuNCw1LDEwLjYsNy41LDE4LjcsNy41YzQsMCw3LjQtMC4zLDEwLjQtMC44YzIuMi0wLjQsNC44LTEuMSw3LjgtMi4yYzEuOC0wLjYsMy42LDAuNywzLjYsMi42bDAsMCYjMTA7JiM5O2MwLDEuMS0wLjcsMi4xLTEuNywyLjVjLTMuMywxLjMtNi4zLDIuMi05LjEsMi44QzUxNCwzODEuNiw1MTAuNCwzODEuOSw1MDYuNCwzODEuOXogTTUwNC41LDMxNS40Yy02LjcsMC0xMi4xLDIuMi0xNi4xLDYuNiYjMTA7JiM5O2MtNCw0LjQtNi40LDEwLjgtNy4xLDE5LjFoNDIuOWMwLTgtMS43LTE0LjMtNS4yLTE4LjlDNTE1LjUsMzE3LjcsNTEwLjcsMzE1LjQsNTA0LjUsMzE1LjR6IE02MDEuNywzODAuNmMtMS43LDAtMy4xLTEuNC0zLjEtMy4xJiMxMDsmIzk7di00MS45YzAtNy0xLjUtMTIuMS00LjQtMTUuMmMtMi45LTMuMi03LjUtNC44LTEzLjctNC44Yy04LjMsMC0xNC40LDIuMS0xOC4yLDYuM2MtMy45LDQuMi01LjgsMTEtNS44LDIwLjR2MzUuMiYjMTA7JiM5O2MwLDEuNy0xLjQsMy4xLTMuMSwzLjFoLTAuMWMtMS43LDAtMy4xLTEuNC0zLjEtMy4xVjMxNGMwLTEuNiwxLjMtMi45LDIuOS0yLjlsMCwwYzEuNCwwLDIuNiwxLjEsMi44LDIuNWwwLjksN2gwLjQmIzEwOyYjOTtjNC41LTcuMiwxMi41LTEwLjksMjQuMS0xMC45YzE1LjgsMCwyMy42LDguNSwyMy42LDI1LjR2NDIuM0M2MDQuOCwzNzkuMiw2MDMuNCwzODAuNiw2MDEuNywzODAuNkw2MDEuNywzODAuNnogTTk2LjUsMjgwLjImIzEwOyYjOTtMOTYuNSwyODAuMmMtNi4zLDAtMTEuNCw0LjktMTEuNCwxMC45djAuOWMwLDYsNS4xLDEwLjksMTEuNCwxMC45aDBjNi4zLDAsMTEuNC00LjksMTEuNC0xMC45di0wLjkmIzEwOyYjOTtDMTA3LjksMjg1LjEsMTAyLjgsMjgwLjIsOTYuNSwyODAuMnogTTQwOS41LDcuNWMtMi4xLTIuMS00LjctMy4yLTcuNi0zLjJIMjA3LjdjLTIuOSwwLTUuNSwxLjEtNy42LDMuMmMtMi4xLDIuMS0zLjIsNC43LTMuMiw3LjYmIzEwOyYjOTt2MTI5LjVjMCw5LjcsMS45LDE5LjIsNS42LDI4LjdjMy44LDkuNSw4LjQsMTcuOSwxNCwyNS4zYzUuNiw3LjQsMTIuMiwxNC41LDE5LjksMjEuNWM3LjcsNywxNC44LDEyLjgsMjEuMywxNy40JiMxMDsmIzk7YzYuNSw0LjYsMTMuMyw5LDIwLjQsMTMuMWM3LjEsNC4xLDEyLjEsNi45LDE1LjEsOC4zYzMsMS41LDUuNCwyLjYsNy4yLDMuNGMxLjMsMC43LDIuOCwxLDQuNCwxYzEuNiwwLDMtMC4zLDQuNC0xJiMxMDsmIzk7YzEuOC0wLjgsNC4yLTEuOSw3LjItMy40YzMtMS41LDgtNC4yLDE1LjEtOC4zYzcuMS00LjEsMTMuOS04LjUsMjAuNC0xMy4xYzYuNS00LjYsMTMuNi0xMC40LDIxLjMtMTcuNGM3LjctNywxNC4zLTE0LjEsMTkuOS0yMS41JiMxMDsmIzk7YzUuNi03LjQsMTAuMi0xNS44LDE0LTI1LjNjMy44LTkuNSw1LjYtMTkuMSw1LjYtMjguN1YxNS4xQzQxMi43LDEyLjIsNDExLjYsOS43LDQwOS41LDcuNXogTTM4NC41LDE0NS44JiMxMDsmIzk7YzAsNDYuOS03OS42LDg3LjItNzkuNiw4Ny4ydi0yMDFoNzkuNkMzODQuNSwzMi4xLDM4NC41LDk4LjksMzg0LjUsMTQ1Ljh6IiBjbGFzcz0ic3QwIi8+JiN4YTs8L3N2Zz4=;" parent="1" vertex="1">
          <mxGeometry x="248.89" y="30" width="142.23" height="90" as="geometry" />
        </mxCell>
        <mxCell id="PT-G1VSfNcF728A1zNsx-11" style="edgeStyle=orthogonalEdgeStyle;rounded=0;orthogonalLoop=1;jettySize=auto;html=1;exitX=0.5;exitY=1;exitDx=0;exitDy=0;entryX=0.5;entryY=0;entryDx=0;entryDy=0;" parent="1" source="PT-G1VSfNcF728A1zNsx-6" target="PT-G1VSfNcF728A1zNsx-13" edge="1">
          <mxGeometry relative="1" as="geometry">
            <mxPoint x="320" y="460" as="targetPoint" />
          </mxGeometry>
        </mxCell>
        <mxCell id="PT-G1VSfNcF728A1zNsx-6" value="Download Keys and Service Account Passwords" style="shape=image;verticalLabelPosition=bottom;labelBackgroundColor=default;verticalAlign=top;aspect=fixed;imageAspect=0;image=data:image/svg+xml,PHN2ZyB4bWxuczp4bGluaz0iaHR0cDovL3d3dy53My5vcmcvMTk5OS94bGluayIgeG1sbnM9Imh0dHA6Ly93d3cudzMub3JnLzIwMDAvc3ZnIiBwcmVzZXJ2ZUFzcGVjdFJhdGlvPSJ4TWlkWU1pZCIgdmVyc2lvbj0iMS4xIiB2aWV3Qm94PSIwLjE0NDU1MTA4MzQ0NTU0OSAwLjA3MjI3NTU0OTE3MzM1NTEgMjU1LjM4Mzg2NTM1NjQ0NTMgMjU0LjA1Mzk4NTU5NTcwMzEyIiBoZWlnaHQ9IjI1NC4wNTM5ODU1OTU3MDMxMiIgd2lkdGg9IjI1NS4zODM4NjUzNTY0NDUzIj4mI3hhOyAgICA8ZGVmcz4mI3hhOyAgICAgICAgPGxpbmVhckdyYWRpZW50IGlkPSJsaW5lYXJHcmFkaWVudC0xIiB5Mj0iNzguMjAwODUzOCUiIHgyPSI3OS42Mzg4MzI1JSIgeTE9IjEyLjAzOTM5MjglIiB4MT0iMTIuOTU5MzU5NCUiPiYjeGE7ICAgICAgICAgICAgPHN0b3Agb2Zmc2V0PSIwJSIgc3RvcC1jb2xvcj0iIzM4N0VCOCIvPiYjeGE7ICAgICAgICAgICAgPHN0b3Agb2Zmc2V0PSIxMDAlIiBzdG9wLWNvbG9yPSIjMzY2OTk0Ii8+JiN4YTsgICAgICAgIDwvbGluZWFyR3JhZGllbnQ+JiN4YTsgICAgICAgIDxsaW5lYXJHcmFkaWVudCBpZD0ibGluZWFyR3JhZGllbnQtMiIgeTI9Ijg4LjQyOTAzNzIlIiB4Mj0iOTAuNzQxNTMyOCUiIHkxPSIyMC41NzkxODEzJSIgeDE9IjE5LjEyNzUyNSUiPiYjeGE7ICAgICAgICAgICAgPHN0b3Agb2Zmc2V0PSIwJSIgc3RvcC1jb2xvcj0iI0ZGRTA1MiIvPiYjeGE7ICAgICAgICAgICAgPHN0b3Agb2Zmc2V0PSIxMDAlIiBzdG9wLWNvbG9yPSIjRkZDMzMxIi8+JiN4YTsgICAgICAgIDwvbGluZWFyR3JhZGllbnQ+JiN4YTsgICAgPC9kZWZzPiYjeGE7ICAgIDxnPiYjeGE7ICAgICAgICA8cGF0aCBmaWxsPSJ1cmwoI2xpbmVhckdyYWRpZW50LTEpIiBkPSJNMTI2LjkxNTg2NiwwLjA3MjI3NTU0OTEgQzYyLjA4MzU4MzEsMC4wNzIyODAxNzMzIDY2LjEzMjEyODgsMjguMTg3NDY0OCA2Ni4xMzIxMjg4LDI4LjE4NzQ2NDggTDY2LjIwNDQwNDMsNTcuMzE0NTExNSBMMTI4LjA3MjI3Niw1Ny4zMTQ1MTE1IEwxMjguMDcyMjc2LDY2LjA1OTg1MzIgTDQxLjYzMDcxNzEsNjYuMDU5ODUzMiBDNDEuNjMwNzE3MSw2Ni4wNTk4NTMyIDAuMTQ0NTUxMDk4LDYxLjM1NDk0MzggMC4xNDQ1NTEwOTgsMTI2Ljc3MTMxNSBDMC4xNDQ1NDY0NzQsMTkyLjE4NzY3MyAzNi4zNTQ2MDE5LDE4OS44Njc4NzEgMzYuMzU0NjAxOSwxODkuODY3ODcxIEw1Ny45NjQ5OTE1LDE4OS44Njc4NzEgTDU3Ljk2NDk5MTUsMTU5LjUxMjE0IEM1Ny45NjQ5OTE1LDE1OS41MTIxNCA1Ni44MDAxMzYzLDEyMy4zMDIwODkgOTMuNTk2ODM3OSwxMjMuMzAyMDg5IEwxNTQuOTU4NzgsMTIzLjMwMjA4OSBDMTU0Ljk1ODc4LDEyMy4zMDIwODkgMTg5LjQzNDIxOCwxMjMuODU5Mzg2IDE4OS40MzQyMTgsODkuOTgzMDYwNCBMMTg5LjQzNDIxOCwzMy45Njk1MDg4IEMxODkuNDM0MjE4LDMzLjk2OTUwNDEgMTk0LjY2ODU0MSwwLjA3MjI3NTU0OTEgMTI2LjkxNTg2NiwwLjA3MjI3NTU0OTEgTDEyNi45MTU4NjYsMC4wNzIyNzU1NDkxIEwxMjYuOTE1ODY2LDAuMDcyMjc1NTQ5MSBaIE05Mi44MDE4MDY5LDE5LjY1ODk0OTcgQzk4Ljk1NzIwNjgsMTkuNjU4OTQ1MiAxMDMuOTMyMjQyLDI0LjYzMzk4NDYgMTAzLjkzMjI0MiwzMC43ODkzODQ1IEMxMDMuOTMyMjQ2LDM2Ljk0NDc4NDQgOTguOTU3MjA2OCw0MS45MTk4MTkzIDkyLjgwMTgwNjksNDEuOTE5ODE5MyBDODYuNjQ2NDA3LDQxLjkxOTgyMzkgODEuNjcxMzcyMSwzNi45NDQ3ODQ0IDgxLjY3MTM3MjEsMzAuNzg5Mzg0NSBDODEuNjcxMzY3NCwyNC42MzM5ODQ2IDg2LjY0NjQwNywxOS42NTg5NDk3IDkyLjgwMTgwNjksMTkuNjU4OTQ5NyBMOTIuODAxODA2OSwxOS42NTg5NDk3IEw5Mi44MDE4MDY5LDE5LjY1ODk0OTcgWiIvPiYjeGE7ICAgICAgICA8cGF0aCBmaWxsPSJ1cmwoI2xpbmVhckdyYWRpZW50LTIpIiBkPSJNMTI4Ljc1NzEwMSwyNTQuMTI2MjcxIEMxOTMuNTg5NDAzLDI1NC4xMjYyNzEgMTg5LjU0MDgzOSwyMjYuMDExMDgxIDE4OS41NDA4MzksMjI2LjAxMTA4MSBMMTg5LjQ2ODU2NCwxOTYuODg0MDM1IEwxMjcuNjAwNjkyLDE5Ni44ODQwMzUgTDEyNy42MDA2OTIsMTg4LjEzODY5MyBMMjE0LjA0MjI1MSwxODguMTM4NjkzIEMyMTQuMDQyMjUxLDE4OC4xMzg2OTMgMjU1LjUyODQxNywxOTIuODQzNTg5IDI1NS41Mjg0MTcsMTI3LjQyNzIwOCBDMjU1LjUyODQ0LDYyLjAxMDg1NjYgMjE5LjMxODM2Niw2NC4zMzA2NTg5IDIxOS4zMTgzNjYsNjQuMzMwNjU4OSBMMTk3LjcwNzk3Niw2NC4zMzA2NTg5IEwxOTcuNzA3OTc2LDk0LjY4NjM4MzIgQzE5Ny43MDc5NzYsOTQuNjg2MzgzMiAxOTguODcyODUsMTMwLjg5NjQzNCAxNjIuMDc2MTMsMTMwLjg5NjQzNCBMMTAwLjcxNDE4MiwxMzAuODk2NDM0IEMxMDAuNzE0MTgyLDEzMC44OTY0MzQgNjYuMjM4NzQ1LDEzMC4zMzkxMzggNjYuMjM4NzQ1LDE2NC4yMTU0ODYgTDY2LjIzODc0NSwyMjAuMjI5MDM4IEM2Ni4yMzg3NDUsMjIwLjIyOTAzOCA2MS4wMDQ0MjI1LDI1NC4xMjYyNzEgMTI4Ljc1NzEwMSwyNTQuMTI2MjcxIEwxMjguNzU3MTAxLDI1NC4xMjYyNzEgTDEyOC43NTcxMDEsMjU0LjEyNjI3MSBaIE0xNjIuODcxMTYsMjM0LjUzOTU5NyBDMTU2LjcxNTc1OSwyMzQuNTM5NTk3IDE1MS43NDA3MjYsMjI5LjU2NDU2NCAxNTEuNzQwNzI2LDIyMy40MDkxNjIgQzE1MS43NDA3MjYsMjE3LjI1Mzc1OSAxNTYuNzE1NzU5LDIxMi4yNzg3MjcgMTYyLjg3MTE2LDIxMi4yNzg3MjcgQzE2OS4wMjY1NjMsMjEyLjI3ODcyNyAxNzQuMDAxNTk1LDIxNy4yNTM3NTkgMTc0LjAwMTU5NSwyMjMuNDA5MTYyIEMxNzQuMDAxNjE4LDIyOS41NjQ1NjQgMTY5LjAyNjU2MywyMzQuNTM5NTk3IDE2Mi44NzExNiwyMzQuNTM5NTk3IEwxNjIuODcxMTYsMjM0LjUzOTU5NyBMMTYyLjg3MTE2LDIzNC41Mzk1OTcgWiIvPiYjeGE7ICAgIDwvZz4mI3hhOzwvc3ZnPg==;" parent="1" vertex="1">
          <mxGeometry x="276" y="210.00000000000003" width="88" height="87.65" as="geometry" />
        </mxCell>
        <mxCell id="PT-G1VSfNcF728A1zNsx-8" value="" style="image;sketch=0;aspect=fixed;html=1;points=[];align=center;fontSize=12;image=img/lib/mscae/Docker.svg;" parent="1" vertex="1">
          <mxGeometry x="190" y="770" width="50" height="41" as="geometry" />
        </mxCell>
        <mxCell id="PT-G1VSfNcF728A1zNsx-9" value="" style="shape=image;verticalLabelPosition=bottom;labelBackgroundColor=default;verticalAlign=top;aspect=fixed;imageAspect=0;image=data:image/png,iVBORw0KGgoAAAANSUhEUgAABQcAAADCCAYAAAD0IHSWAABI1ElEQVR4Xu2da3Yct5JuxSNbL4pSUaRk+XSvO4Lr/+4ZXI/YPYPr/6en0G1LoqTSi+JT7PhKQDlZrGLlOwPAxlq5KJGZQGADmYkMxGPnDgUCEIAABCAAAQhAAAIQgAAEIAABCEBgEgL////+v8/W8G7Lxj/9x3/955OW13IZBBYEduAAAQhAAAIQgAAEIAABCEAAAhCAAAQgUJ+AKfT+tLMf2XFV/6obZ17ab+7a8bRDHWpfysULO/5RkWedvmedrPG8r6Zk/LmDHFyaMAGUgwkPHqJDAAIQgAAEIAABCEAAAhCAAAQg0B8BU/q9Dkq/b6FW6U2i7kQ/oxLucX+tuqnpU+jrj0GiqEys9l9/mpsi8Sc3UiNIZwK9KgcrN9EPJtm3X//1++7Ozk4XLXrnDlIBBCAAgTEI2PPvjbXz0A7t/F3Y8+8Jz7965I1dXITEhZbeTdr1XH1H6X0Sf7f6bon/r/5+0zn1BOvnrHXv2eriqrrYlLxahMZD79JTW3gd9iNK/rXYXDqyXmoH/8S4Pcu/x/QQAsMQCO5tehad26Fnkd5tOvRsVtHzavW5u+75u+mZ3PT5XOd7YtN3TdPvndUP4Njf+GzWB/OlPWNmw9D3UWv4rrtn0sR3s8Z+9d28Ogc2sb7NUqn6Xtd5sqLST3E+N84HPoggRW4EwhzX2l1zLhbd53rm7eXW34H68yHw0/0a72U9J47t3n0+UJtUOxCBpi/LhRh2I723H9EfXguFs/AQ181VLbrRqpNEZqpatFMgAAEIJEnAnn9zE1zPOi0e9PLTh5N+rj7/9HsVPQP1nNRLMsfdxc7jaEzjx2fnujKs4MrmTfwYz7B77boU1iHV+1Afr7rXqmuMr/Z/fWBqkR9/ah3Cgr8ddq4qiIDdY3rHtfpOKATTN3uW6N2ebbE5cGqdk3JwyqINsgdTCkDbaROwefzOenDfDq0TtBbQfavnm362je+XNpTxpP8SWOs5Ejf4P7PpPd4ANG1JC+baxW6uV3ayFtWrH8GbHtqrL82HVocmyWJHyCZGF7/62nJzIgQgAIGuBMLzT4F+V593mxbO0RQ/Nr1rdRyHxYk+KmZdZcroer0TGr2PMuo7XalJICgEo/XS6kajFv6rZXWtor8/DvehAnfjClOTPacVSUAb/+vuqyJhrOl0HUvG1FlJmTK1cjC6dKbOEvlHIBDWCZqzmjdxbYkCcAT2G5pYx/5+8BjS80Vrf21CyYDixXRi0nIkUOtjLLjpaJHdh9Xfso6wI3XGLj4TEgIQ8Eog7Djq+dfHzvVSWWH1yqpJ7jJkFvu+e0tZT6B4y53g3qjF/qrCve2c0X0YNytVxwWblW1Rch0EIAABCEBgXAJXV1c7f/zy21trVRsYUgRGN/Q+1urjdqbM1lY9qWRAIQMyFY2p1r4fbW22Xyae6Xq91VUpWMso1kMfisHVnmqxr118xZuiQAACEHBFIGyM6MU0xGJDde4FN2VX/UYYCDgjoEViX4rBate0rtHxJKx1nHUbcSAAAccESrAc9LA5VQJnx9Pcn2h6X5tiUJ44Wp/rHS5Fkzwbh1ir+wOQr0RxTRZj286kI9J3Emu08QZ9o+VgxX1njNg8UhB+YOd+vIGnJQhAYDMBex5pN3JhXTQCp6eyTiw8eYKHD5ARhpommhAI6xCtU4bYnFwV5UVwN1Z8K3aqmwwU5+ZKgOfy7SOL0irXmU+/XBEIawGtxxUDc6w1gSsGBQuztDAMloWyEpVloULDkKhogImxVjkYrGVmA7R3W5XauSce18jQaQ4CEPhOILgoKOOwXkRjx1nal0Ky4BcdH6Gbb8QiP0DDx8DY65Dobnxiw6ENS2IS8oKAAAQ2ESjh2ezh3VwCZ+6yCoGwQS8rQMWkk9dA3Kgfe23OuPgiUN0oflaJW6g5QszCnsbqhnJwogV57E41Hpd2B7SDTzyungabaiAAgZsEglLwyFwUFDR3yoWHXnRv7Jn3nHGCQIVAcR9G4cNgbMVgddLpORAtCbVLrdigWBNyW5ZGwINiqDTm9HfNMg0o+RPQ+td6KYWgQp6N4S2QP9T8e1iNWxhjFmr+EM+9w9hfUw6G2FdeMggrHuG9YE2oQfYiVwfcXAoBCHghEC0FTSmoRcgY7sN1un6IgrAOpqLOKUo5OPEG5erEWk0g9MXWIodFzT46WzIBlIO3j35Rz+aSbwT63j8BhdPRd74dMWMtGYX7x1xajVGp/KBiVajEt3iBNJgJq5aDQwT8biDO2lOjm48y1mBF2JUm10MAAnekgDCloJ4tU1oKbhoJFITM0SIJOFMMro6BLBq04FSWcbmvEOumyFlKpyFQFAEUxEUN97CdDUZIUghqXpE8ZFjcpddejVX42WBoM0fKQ8UqnJUO57b+L5WDQYPv2YxXWT21KJeLzzcb2DESpTB3IACBjAgEd8Wp3YfrEJWCUC8wnnN1aOV9TknWKVUXEa+jGpWECn0iS8JnXgVFLgh0JIBiqCNALodA6QQqicWUgdaLl07pw1Ja/6tWqUoC+cUAXNohz1Q2eldmw0I5GNzrUtDgL2W0gT0z0RWTkI/n0m5x+guBhgTsefHRLtFupUdLwU290UKqlMJHaCkjvaGfYYNybZI0p2hi6BMlL1GMmytbj6T0fHGKFbEcEeC57GgwEAUCqRAIyhc9P7AQTGXQypJzaQwXwtdpnhKnMMwBLWjvmHvde/uRmjZfLtCPZV0j5WZZc5reQgACdQmE7OvaRODDvS40zoPA+ARm4zfZS4t6rmg9ohjJiqFEgQAEIAABCBRHQN/jwVIwxvJOwfCouHGiw9cISP+leSoP1T9h8323WyVl67vHptycM5gQgAAEqgSkFAy7l6majD8M2dtKGFg2eEoY5dv7eJwBgn3tQofwBRl0hy5AAAK3EOC9xfSAQCCg9559j8uSfgYUCCRK4KWMzux4laj8vYgdXXjkdx0Vhb1UPHIlT4JZqGIzybUnhbhFIyOiOQiUQSAo1HKxFCQJUxnT9rZelvIB6jEhWpvZF5Oo6SNJMQlT3Zxo03eugQAEIACBAgiEkGRH1tWF5bwdeOcUMO4FdFE6JHmmxriEynZ8WEC/l138IdzcOQQ8X7pF24AqULgGM2WLyJLmIX2FQGcCQSmoh3pObgw5PJs7jy0V5E2gEhM0p47qQ+l+2LhU/NBLW5N4TvqWE3v6AgEIQAACAxGw99pfZiWozevUQpINRIRqMyRQjUsoReGxreGeZ9jPG136wW5upXeWxj+nEgOFX1inFGCSh1dOo0tfIFAhkKlSMPawFKsxKUFL6Sv3700COVv7Vzcuv1rXZU1Y1C40Ex4CmRLgnZXpwNKt6wSCIZFi6srjUJ6GbHQxSUoioPn+KGz2xizHz3IFoJs85xtcu/V35T+OFWGuU5h+lUogJBqRUgFXhlInAf3OhYA28nJxK75tTGTV/MCeXVISntq6ZJbLANIPCEAAAhDIi0BQCr4xQyJ54uVmSJTXYNGbMQhUN3sVJ1v6pZ/GaHjMNmLMwTHbnKIt+Y5rMa5dvn/YQPKAm2IUaBMCPRCwe/mDPrBZqPQAkyog4INAyjGP2xCsKgl1/V3WJW0wcg0EIAABCAxBQFmHTSkoZQgb8EMAps7UCcT40tIvfc7J5bikBbkW43rA/WgPPLlSUyAAgcQIhCyginOCgj+xsUNcCNxCoFT3vIWSMKxLPjJDIAABCEDgBoFS3w+TTAVZC0oxaI3PUAxOMgQ0mhYBreEOc8pwXIrl4Oo027VBVCZBJS0hG2haNyHSFkggLFTih3SBBOhywQRK+DAqoY/bpvBe8HD4auuSbGPZbIPA3yEAAQhAYHwCwYX4z+BCnHPIsfHh0mIJBF6EDMdyNX6ZcodLVQ5qzGImwY8oCFOewsieK4GwUJlb/7RIKfVZhdIk1wlOvyBwk0B0N9bmpZSE+0CCAAQgAAEIDEUgrLVfm1JQMbz1DqJAAALtCMTEJcpufGJruIN21Ux7Vakf3FXqcbf+m/3yG4lLpp2QtA6BsFBRrBM9ZEtIUsCgQwACEKgSiJuXimWjTN5am+Sc0ZnR90mAzSmf44JUEOiFgEL12Fp71yojrmAvRJeVnNm/FLot6ln0HtehZ6p+Vkt8zvb5vF1tQ+1Vf1dtU/qPUzuWyTb6RVFkbdXsxtroTUpJiHLw+5xd7pTYg1I3iLII4m5c5P1Mp6ciEJSC74JSkJiCUw0E7UIAAl4IVNcmsibUTvTMi3DIAQEIQAACaRIIMbwJYdF8+JSlVu/mTXkbTn791++PdnZ21inomrc2whXh+0ubkbcpibUGwbK02XjEpCVHNieepzInUA7eHGQpJe6F2D9aiOPW0+xG4GwINCIQXkravdROC7uX1+n1uZPYaFw4GQIQcEUgWhPicuxqWBAGAhCAQDoE7Pv2g75zUfTcOmZSAEr5F72XFt6Fdkjxt79VybOT1tI99OdWxV/4VotcYgfFSEpQGVbJApWynsCBfeN+kQFaCnollIObp3GM/TNnp557HQLDEFCikeDSgPvwMIipFQIQyItA1eX4rnXt0tYouAPlNcb0BgIQ+JtAWpoWpyMXQ/aYeHjGXR8jKbakD4mWgFIAPt6oAExM8dfXdAw81q41wtwSx+q33IWUqXYQEuX7IEQrwte2ZnvR17gMUQ/Kwe1Un5oCQ5pylX/YgGJSu50ZZ0DgVgJh53LxkQsqCEAAAhBoTCCuRX4M4VC+kOW4MUMugAAEIJA9gbARvzB6yb6z9Tqo7/pLO76ttQQsVAFYD93Ns4LicG04KJt77+wKbWSilP6O7nnQK7mNRbjJX77t/Mj1uoW2V4oMG9BP0pDn2lH6BYGhCYQXhV4SKAaHhk39EIBACQS0KN+3Z+tRCZ2lj6MRSCZm1mhEaAgCCRHQ92qILTgzsUtWDH6y/iuD7MKaTZaByi0gz8CtLsIJjbdHUbVpabw1/zQGi9jJdkg5K/f2Uot0Ss+8rtmwHGw+LR+bG+SZDegFrjzN4XFFuQTCQ1APRMUWpEAAAhCAQL8EDoiX3C9QaoPALQQwFGB6uCWgjXj7XtWauzSloJSAKks34RtW9VgGjjpvgwL2muVgcEWO8S9lxakMz7NRBZu+sbhmO7M5+nR6cb5LgHKw3UiI2w+yIrTB3GtXBVdBoAwCQSmoQLWlLVDKGGB6CQEIeCIQ4yUr86DWKopJyLPX0wghSy4EsKzMZSQz60cI3VOSG2dMlHFlVmp7WAP6n9CrCsOgLJyb5FJo69kqC8MS5nBcs733kqwE5WC3++dxJR7hlQ0qmXq68eTqjAgEpaAC0eI+nNG40hUIQCAJAlEhqI1MBQr/aGuU50lIjpAQgAAE/iaAErbBbFB8wUKUKtFN+Pzauw2rwAazxc+pQVm4tJ4LykK5IssCVFaFbizrBqI2UwgAm8sHA9Vfu1qUg7VRbTxxmbknLMCVproETXd3ctSQJQEsBbMcVjoFAQikS0AxCQ+Dy/Gxh8VnuiiRHAIQgIA/AkGZ8sokm/mTrjeJpCyS7kKJRLAQ7A2rv4qCsnCR6bhiVaixz9n9WHEIJ1cQohzs937QAvye4jyQNbBfsNTmn4DN+zcmpR7kuLD5Hy4khAAEyiMQ3VfkgvUtfGA9xQWrvIlAjyEAgXwI2Pr7lcUXlPdajh5sUggq2+3JtY0tLATzmcBberJqVWjzfR7mxLn93M8MhBSEcqmWRewkoetQDg4zo5Q1UG48CjA5ycAO0y1qhcBNAiH7cIlBj5kOEIAABFIksPR4sA/KE1kUKmtjih1BZghAAAIlEwjeOpO7Ig40BgqHkbs76UDo8q02rleCReGR9fRZZr1VOK77dm9r/o/ujRoz+WTG1EV3ZEWomIRaeL91IRFCQKBnAmFua9cGa8Ge2VIdBCAAgREIaK3yNFh+j9AcTUAAAhCAQB8EMlUMKpagrAXlXolisI+JkmkdsigM1qSfrYuaNx8z6+peiCE6arewHBwed9T+ypJQJtE86IZnTgsDEqjs1Mj6ZGmBMmCTVA0BCEAAAsMSUExCuRsrJuHhsE1ROwQgAAEIdCEQNnRyshhchLuwWIJPCHXRZWaUd2300gzfp++MgIzfRre4G4i8EpWMmskY5eBAI7mm2hiPUH7kUhLOxmualiDQnUB46L4JcU2wFOyOlBogAAEIeCKw2PAJSkLFJLxkQ9PT8CALBCAAgTt3MrIYlLWXslFfmFLw2UIpSCxBpnhLAkGpvIhBGJTnP9o/czDKGlVBiHKw5QTscFm0JPzAorsDRS4djUDciTGloD4cNX8pEIAABCCQL4GlRXgIjP2FDMf5DjY9a01gp/WVXAiBlgQysRiUoczltYzDKAVbzgguW0fA1izPK5aEOmWWOCkpCEdJeItycLqZ8iQsuhe785hRTzcQtLyeAEpBZgYEIACB4glUQ6N8RklY/HwAAAQgMBEBZSW2plMO+6DYcGf2zXuIleBEk6igZlcsCeVuLL3XZcKKQiW8HVxBiHJw2ptkaYVlVllncuXBmnDaAaF1s++/utqx+fgOS0Fmw4gE5FaCFcaIwGkKAg0JKDTKM2U2tp937ZAb2C6xoRpS5HQIQAACDQmE5H/6ZtxteKmX0xVPUIYwT1EKehmSsuQw/coyo3GwvtU6ZuGCnFiRgvBoyNjQZCv2MyOkqJU14VspZ/yIhSSlENC80/wzpaBe4jM7cCEuZfDpJwQgAIF6BBRvVnF8Htq74kSLVNYs9cBxFgQgAIGmBOwZ+8GukWIjRcWgsg6/M6XgY1NmkGik6eBz/iAE5HJsc1LJfI4GaWD4Sg+0UWuH7q/eC8rB3pF2rvCZLbi/yGy0c01UAIGaBPSAsXknixAtQEg2UpMbp0EAAhAomICsCQ/s3XEaPmALRkHXIQABCPRLICQeSTXrqqybnigUBRbm/c4LautOQHNSSkKrad69tklq0Lf64yHWXigHJxnPrY0qGLjMRrUr/37r2ZwAgQ4EwuLjsVWBpWAHjlwKAQhAoFACsiSU58M7rAgLnQF0GwIQGILA3hCVjlCnFINSvFAg4JqAzVO5FkvXMnct6GbhtP7qtRBzsFecvVcWA4Erq9PXMIF7b4QKyyQQrFNl+ZGiq0KZg0avIQABCPglsB88H/ReObc1yzLrsV+RkQwCEICAPwK2Rn9tUulZmlL5aMJ+QzGY0pAhq+IRhnj7b4yGQrst4xMmQOehYij2ec+hHExg1E3EqCQ8Mh/555hnpzFoXqUMgVilEOTDzesgIRcEIACBNAnE98pde9ecWhc+DRk4O01ESA0BCEBgM4GweZ9asoS3POuZ1akSCLqVw6AkVFbwlCxfD+2ZMbf7b9YHf9yK+6A4Xh2K7XOMq/F4wHNqSe7DyohtfTpEMZjTyNIXCEAAAi4JLGIShhApxFF2OUQIBQEIeCIQNvBTUgx+MX4fUAx6mkXI0pZAiEX4wq5Xso9523omuO5pX/ohLAcnGL2OTSoA5YOg5Plm/1ZAzVRjUnREweV1CISYgrIUJNFIHWCcAwEIQAACfRKI3g/anLqyQ25nrFv6JExdEIBA8gSC1VIqa3W5EJ/j0Zb8tKMDawgomY5+bd/Qf9mPnxKB1EvuAJSDiYz2GjGXLqHBdefEJvLTdLuD5H0TsHnx1up8hFKwb7LUBwEIQAACLQhU1y2KpXzKuqUFRS6BAASyIyCrH/MOWxiAJNC5/7Fn978t5NxRiDYKBPIkYPP8ZcgILIOsmfNe9hJ/ELdi56NcUzy57ihToHZxKIUT0AJDblyGQQFVU1hkFD5idB8CEIBAcQS0w611y6kdct+hQAACECiSQMjy/jiRNfuZWQv+e5EDRaeLJKBNTJvz+qa+SACA4g/KOKh1QTnYGp3LC/cUkNKlZAg1CoHgQjyzxnoxLR5FaBqBAAQgAIFSCWhz83FfsXJKhUi/IQCBdAmYxaASIKTgzaf4gl9IjJnuXEPydgTCnL+0qxUexXt51kVBmMKDyPsAeJNPASljXJ8LXHa8DU//8oQYJe+tZn1kkYG4f8TUCAEIQAACwxKY2dpFH57yUbskJuGwsGvWrviQFAhAYEACYQ2/iG/mvJCN2PkAId6wBGxd8iDcr0fWkiwJPZfWnoNYDnoe1vaySUGkWHNy2TnD3bg9SM9X6gElS1HbcZQLseJNohj0PGDIBgEIQAACtxHQukXvMVkSyt14Di4IQAACOROwNbyec969fd6RjTjnWUjf6hII2YwP7PwPda+Z6LxHwZuwcfMoBxsjS+6CH01iuRu/S05yBF5LICgF39mC4mtQCspikAIBCEAAAhDIhYDea/KEkJKQ9Usuo0o/IACBJYGwAeLdalAWg1KGUCAAgUDA7omZ/VNee57LQZuQLSgHPQ9pv7Lty92YwN/9Qh2ztqAUVDYzWQru2+F9p3FMPLQFAQhAAAL5EZCSUOuXEywJ8xvcxHtEmtbEB9CB+LKW9lywGPQ8Osg2KQFTEMq12LsFYeMQgo0vmHQUaLwrgYXbachkq5Tc3yz7zh6BZbtiHfb6EN9AloIaPxSCw+L2VjsfH95GBHkgAIEpCOjddz+sXxQUXHEJvVvcTMGJNiEAgQQIBIseeXd5LUf2jH3uVTjkgoAHArIgDBuXCu/lsShMyyuT86e6wmE5WJdUXudpkS1F064pnIhJ6HhsKzEFZ/owciwqokEAAhCAAASGJqD3oKxtFC4Fa8KhaVM/BCDQO4GgTNC63muZoxj0OjTI5Y1AcDH+6E2uijwvmrgXoxx0PJIjiSbrUS2yPU/qkVD4aUYLBzuIKehnSJAEAlMRwHp0KvK0652AFIWKS/i1ycLXe6eQDwIQuEYgx3eg583+16bsUOgiCgQgUJOA3TOyHFQWY6+l9jMH5aDXIRxfLikIvQfWHJ/KBC3aOLzVB48drdOQTyA2TUIAAhCAAASmIKB3pVx79O6kQAACEIBAOwKnTdwP2zXBVRDIk4CFanthPTt32ruLunIRc7AuqTLO0+L6i3X1Soe9IPbK6LaPXoYPG33keA9Q7AMYUkAAAhCAAAT+JvBMidfCfxWTkDUMswMCEHBFwJ5Rsi7yuvmvb0AKBCDQgoByOASvP4+xRGUEJqtgKTBvLVgObiNU3t+lmNq1QwEsT3E3HnYChAzER+FhoqxHKAaHRU7tEIAABCCQLwHFU9YR1zB4ROQ71vQMAkkRCLEGD5wK/cEUB15lc4oMsSBwnYBZD87sN14zGD8PzyCUg0zc1gTu2ZXSNL+TEqt1LVy4loB2Dy0hjKwc9DL2uovI6EEAAhCAAARSJKA1jDwilLgEl+MURxCZIZAJgWBs4TWj6buQVCET2nQDAtMQkPVguJdeTSPB1la3WjViObiVIScYgX1TYingt1dNeFKDJKVgsBREKZjUyCEsBCAAAQgkSECBuOVyrHXMcZ2d8wT7iMgQgIBvAl6NLKQYxGLQ99xBusQImAXhzybyN4diP7I10K2KS2IOOhw1pyJpcX2/Es/njk38XWnIncrrTixZYJpQchuunTHIXScQaGwCXheTY3OgPQhAAAJdCUQL/Ydhg+6Yj+JbkbK+u33G8X7uekeWdf1Wi50JcPxlz0ApMSgQgECPBEL8wY9W5V07vMU/vjWEGZaDPU6EQqqK8XwemjXhuS2wPxXS79bdVBZouTVZBfsoBltj5EIIQAACEIBAXwSkKJQ1oVyOiUvYF1XqgQAEbhCwZ8z/OFz/fzUjj38yXBCAwDAETPG+b/eYQgl405UoJvNG60GUg8PMh1JqlTb8B+IRbh7uEOdo5nBRUMocpZ8QgAAEIACBTQRkya+4hK9ZyzBJIACBgQh4dNud4/010GhTLQQCgXCPybDKW9koE8pBb0OVnjwPzILwCxaE1wdOMY2CC7YyEFMgAAEIQAACEPBL4HlYyyj8BwUCEIBALwSCZbKSI3kqp2bR9G+eBEIWCGRMQN6D3ooSzh6tE4qYg96GKk15FtrnoAy7tH9eyJQ2za50kzoEOpe7EnEFu6HkaghAAAIQgMCYBBZhU8JaRoHEL20t4zW76JhcaAsCEGhPwJtiUD15i9Vg+wHlSgg0IWDrCCni5Mb7osl1I5y79tmEcnAE8gU1sTRRDcG+T0pQEsoVySwO5vqosMNjwOGCpiBdhUB2BAh6n92Q0iHnBFbXMl9tLYMXgPNBQzwIOCWgEEyeiqwG//3ODksLT4OCLHkTsDXET6YbObVeetwsuAYft+K85+KUvZP1nOL4vJlSiCHbllJQ7gKmGDy2dp6gGBySNnVDAAIQgAAERiegtcy+NjxDDOHRBaBBCEAgTQLhG8ibJxGxBtOcTkidPoG5sy7IovFGQjYsB52NUobiHNrE+2L9Ojet+SyH/kVLQVMK6qPB/Q5ADszpAwQgAAEIQGBCAnrfPwheEVo7n5v1zS6ueROOCE2PQQDzsm6U9dzwVGQ1+DNWg56GBFlKIWD33kvTHSj+oCfdwQ2PRywHS5mR0/bzkTX/VEpCOz6u01JPK1691oOl4Ae7sb/aFbIU9HRz1+sEZ0EAAhCAAAQg0JaAPvalHHyotYAsg8hy3BYl10EgewLejHCwGsx+ytFBrwTCZuInZ/IpV8S1gnLQ2QhlLo6UhHt2yN34LCUXHZP1c9D2SynozUUg82lD9yAAAQhAAALuCGgtcBiUhDdcc9xJi0AQgMBoBOy7QZnPPVkOfjIPrpejAaAhCEDgBgG7Bw/tl2eO0DxZDQGHctDR6BQmisxY76ew4x5uml2TF0vBwiYp3YUABCAAAQhsISAloTY9j1JY0zCaEEiMQKquzY+dcfZmxegMD+JAYDQC3vRvMt5aFm/CjTYqNOSCwK6SediCeu5CmooQwYX4nSwG7dfS8lMgMAWBVBfFU7CiTQhAAAJTEjiwNc1nWzech9iEU8rSR9u8f/qgSB2lElAIIk9FmVIpEIDA9ASkW/BUrlkysovgaWjKlCUG+VbSkm92XJnJrVx3Jyva/bcFvrToDycTgoYhAAEIQAACEEiNQNyB/yEoCD/bmuZ5ap1AXghAoDMBT95Gx/Yc2u/cIyqAAAQ6E7DEJM9Mz6DYg/JK9FCuGQtiOehhSJBBBLSglgm+0mqfTGFNKPdhO45NhgMUg0xKCEAAAhCAAAQ6ENDm56GUhCH+WIequBQCEEiFQAhH5Cne4FUq7JATArkTCIlJbmQJnrDfijv4Z2wf5eCEI0HTGwkofo+yG4+SBbCiFJT7MNaCTEwIQAACEIAABPoiICXBvjYfU0rEZjLjVtzXDKCe0ghM6gG1BrYMHygQgIAfAt7uyWWMVNyK/UwSJLlJQFkAtZg+NXP4WZ+AFFPQ6n5tdcqkF4Vgn3CpCwIQgAAEIACBVQJaazwMHgp37d/ntrbxlrSAUYMABPIicGZujD/d2UHXn9ew0puUCQTXYikIvVgYX0SeKAdTnlllyB5jEkYN+44tpjsp8+SybIpBWSd6uSHLGEl6CQEIQAACEIBAXMPcC3EJL2xdswcWCEAgGwKKoe6lfA5ujF7kQQ4IFE9A96S9/5cKOU9AcCv2NBrIchuBxY67FHrKICzLvza4QhyQpygG29DjGghAAAIQgAAEeiSgTcrHtjZ532OdfVXVap3VV+PUA4EUCYTvEy/3zoltPCiOOgUCEPBHwJPngLwZFgXloL+JgkTbCeya5d/R9tO+n6EXtawF7VBGZMUVpEAAAr4IECzb13ggDQQgMC6BGYlLxgVOa7UI8G6uhenvk+z7RIp+eSd5KOcehEAGCEBgLYG5Iy5KCLtISoJbsaNRQZRGBJ4pq7FdoZg9G91x7JyP9qLWzrynrECNOsrJEIAABDInoA9QL5YWmaOme44JxDAqWtto817rG8VFpkAAAukQ6BT6qOdu8p3fM1Cqg0BfBELcwc9W36O+6uxYjzwrUQ52hMjl0xLQztx9UwCe2U/F95ACUB+YOuJuGUrBaceI1iEAAQhAAAIQqE8gWh39GDZB5Ro4q385Z0IAAhMSUIz0exO2X23ak6LSCRLEgIAPAiHuoLv8B+wo+JgfSNGNwDoFIErBbky5GgIQgAAEIACBaQnETdBTE+Ns5MQlWPNOO/a0niYBT98fn9JEiNQQKIaAjJm8hCFYvPOJOVjM3KOjEIAABCAAAQhAAAIJEpAlkhKXnMqaUInZEuwDIkMgawJ2X/63ddBLKIBjc1tcuAlSIAABnwTsHpV1r5fYoAu9IMpBn3MFqSAAAQhAAAIQgAAEIFAlICWhrAx2FVLFjg8D4lHIFgoEIFCfgCdl3IXcFuuLzpkQgMDYBMI96sVKf6EXxK147FlAexCAAAQgAAEIQAACEOhGQO6Liksol+NTczl+0q26G1djQNAzUKrLnoAnZZyXuIfZDzodhEBHAl70cXfVD178HUeTyyEAAQhAAAIQgAAEIDARASkB9kxJ+K6v9q2u91aXlw+WvrpFPRAoiYAXa6SSmNNXCLQh4GVT4VLC8+JvM4RcAwEIQGAcAl5eGOP0llYgAAEIQKAtgX1T6n21i6UUUPKSLpaEZDltOwpcVzIBFHIljz59h0A7AvrW8/DsOL+6utpBOdhuELkKAhCAAAQgAAEIQAACngg8CMLcD+7GX01JOGsiYLBA9JI9sYnonAuBqQl4+MCPDDzJMvW40D4EILCdwP0/fvntBLfi7aA4AwIQgAAEIAABCEAAAikRkLvx05DhuJbLsZ17ZNfsp9RJZIUABCAAAQhAoDMB6QV/wHKwM0cqgAAEIAABCEAAAhCAgEsCUhLeM8Xfif2MLsd7UVL7/bH9W4HIL+x45LIHCAUBCEAAAhCAwJAE5N78D5SDQyKmbghAAAIQgAAEIAABCExPILoKS1EoheCZlIZ2xPiCZDedfoyQIG0CnuJE41ac9lxCegiMTWDxzEA5ODZ22oMABCAAAQhAAAIQgMB0BKQQJOnIdPxpGQIQgAAEIOCOADEH3Q0JAkEAAhCAAAQgAAEIQAACEIAABCAAAQhAYBwCKAfH4UwrEIAABCAAAQhAYAgCX4eolDohAAEIQKARAVx5G+HiZAhAwBsBlIPeRgR5IAABCEAAAhCAwGYCUgae2nFux9tf//X7rv38bId+/xFwEIAABCBQPAEUlcVPAQBAoDGBK2IONmbGBRCAAAQgAAEIQGASAp//47/+c5lpdiHBzuIbsJp99r1+a8fTSSSkUQhAAAIQgAAEIACB5AigHExuyBAYAhCAAAQgAIECCbwzxeDBtn7bOfs6xzLSfrAf8hC5RFG4jRp/hwAEIJAVAU+Zk7MCS2cgkDGBrygHMx5dugYBJwTOTA65wF23dnEiHGJAAAIQSIDAqbkPHwYrwVrimpJwaTloisIju0jWhM9qXcxJEIAABCDQlIAnV16Ug01Hj/MhUDaBz7bOfIJysN0kUJwfvQDuBqWHFB+477RjyVX5EtB9ccceNA93dnau7ONUsbC+ca/kO+D0DAItCfARsx3cBz1Ht5+2/gxTFB7qL/YcfmM/Fv+mQAACEIBAtgRavy+yJULHIACBWwlonYlysNkkkbLjm4J/ry7SbcH91v4mZSFKwmZMOTs/AlKen9t98nhxn3yPh3XHPk6fhI9TWbBsdY3LDws9ggAEINCKgHZzXzaxGtzUij2Hn9t65YvWMuFYPJcpEIAABCDQmQAKuc4IqQACxRHwkiD4R5FHOVh//n2wRfVscXpQdlQvjXGAbNH92n4vuN/PpUCgHAIn1tULmSRXlYKr3ZcFi90nCpjPPVLO3KCnEIBAewJXXawG1zyDld14UYK7sTY2eR63Hx+uhAAEIAABCEAAAikT0KYxysGaI/g2uuRsO9/Oe1FZcEtJyK78Nmj8PXUCiikoS8G925SC1U4qYD7ubakPO/JDAAIjEbg3VDsr7sbaMEZJOBRs6oUABHIn8NBRB7U2p0AAAv4JyDP1vgMxF5bPXswYHfDYKMKxKT2eNxVQC+4QDFzxfeZNr+d8CCRA4Nhk/GD3xwOb699diBsUubfZ6SxeGjDjVAhAAAJDENDzOGQ5VtgHWXZTIAABCECgGQGFmPJSZBFOgQAEHBO4urpS7C1X+jhXwjgdux+aKj2q/ZAlYVhw64XxwWkfEQsCTQhIofdJMQXlat/l/rB6FPuKAgEIQAACmwk02njpAjIoCZXR+J0dn+1QIikKBCAAAQhsIWDrYnmPfXIC6pF56MydyIIYEIDAGgJ//PKbNmQXsf4clIVbMcrB7SPRy4AFS8KZNadJgJJwO3fO8EXgq4mjmILRUvB7XMGOxe4LfYQushpTIAABCEDABwHFUbZjL3hAaHNz7kMypIAABCDgk0BYF3twD4yAlvFlfRJDKgiUSyBYDXoKP7cIi0BCkpHnZHClVBBwLbalnJ2NLALNQaAJAVmOXC6T8ejKNQl5mlS45tzLjtdzOQQgAAEIDESgEpdQm5tat+wP1BTVQgACEEidwLl1YLA4sQ3hLCyBKBCAgD8CZjWoJLaedHELq2csB7fPlc7WUeuaCLvyWmD/uV0EzoDAJAQ+BsuR2cCt92KdO7CMVA8BCEBgKgKDrEOadiZ4QMja+6+m13I+BCAAgRIIKDmf9VPeNh4KykEPo4AMEFhPQOspL+VLCIOHcrDGiAy6KLeB+KfJIDdjXI1rDAanjEJgEVMwuJON0iCNQAACEIBAGgTs3fBzWLPIspy1SxrDhpQQgMAIBIJrsRePmEG/YUfASRMQyJmAwnV5KcsEoZ5MGb3AGV2O6LJprsbKbKwxmY0uBA1C4PtO57ntenZNMgJLCEAAAhDImEA11ERYuygzJu7GGY85XYMABGoT8JIp+KE9n9+F+N61hedECEBgFAKePOeUNXlRUA6OMvb1GqnEI1RcH43N03pXchYEOhFQQpBzuRAvauk/pmAn4bi4CALsbhcxzHQyRwKVtYvi52ixO8uxn/QJAhCAQE0Ci8D+Tsq+KQgVJshT4gMnaBADAtMQ0D0Z1kvTCHCz1eUzC+Xg9iEZ/aO1EvwbS8Lt48MZ7Ql8sUsvzFJwv4/Mw+3FuDP6PdZBVi6FAAQgAIE1BGzt8kK/tkXve/uhXWg922fAggAEIFAYASWdPHDUZ3IMOBoMRIGAM8WgBmSRjEQF5aDj+bliSSgTdRbZjscrIdEU4+Bs6T48vaUgysGEJg+iQgACoxNYunuM3nKLBmNQa11qikJZE2r94inwdotecQkEIACBegRsff3cMpHKMuhxvSsGP8uLm/PgHaUBCCRCwNO6TpbFzyM3dhISmEEhQ6Bi+cjdWDvyFAi0IaDg8XNbtDxSspGJrQWr8qMcbDOaXAMBCEDAOQFZE9ohCxqtX2RNQ4EABCCQNYGwvl4G+HfQ2Qe2UaNvAAoEIDAxAbsXtR66P7EY1ebPq//BcnD7yLhRXFQsCf80sV9uF50zILAkoOzD3+ONTG8puDosbu4x5gsEIAABCPRPgPVL/0ypEQIQcE3AW9x4T8kPXA8cwkFgYAIPBq6/afXXrBixHGyKz8H5tsj+2cTQDvzcgTiI4JuAYgi8JxCx70FCOghAAAIlEAjrlw/WV7ncsYYpYdDpIwTKJKBnnKdy6UkYZIFAwQS8KeqvKSuxHNw+Mz35hC+lrSQtUTyfe3Z426HaTpYzhiRwbJWfBHeuIduhbghAAAIQgEBtAvZemsWTQ0xCrUUVOoUCAQhAIAsC9px7Zs83Jf575KRDD+XOGL8fnciEGBAoioDdg0o2K72Np7JMRiKhUA56GpoWslSyA6IkbMEvs0sUT0TWwMpAPHMUUzAzzHQHAhCAAAT6IFBZw2jBrKD5KAn7AEsdEICABwLePPR2PUBBBggUTOB7iC8/5YOtw66FqkM56GdwOkmyssBWkMu9ThVycUoEpPG/rGaIdBhXMCWeyAoBCEAAAiMSqMQk1EanXG5mIzZPUxCAAASGICAvHk/xxZSYBOvBIUaaOiGwhYDde/9tp3izGryRydzbjgYTqyMBLbBDfDntws87Vsfl/gko/fiTa4pB/zIjIQQgAAEIQOAGgZDdWNaDWr8Ql5A5AgEIJEvAvHgOTXi5FnsqXtycPTFBFggMSuDq6kph6p4P2ki7yr+uXoZysB1I91dVFthSEir4NyUfAvpgkgvx3MaZWJP5jCs9gcA6AmTzZl4UR0AbXnq/hY0vWRPOi4NAhyEAgaQJhPA+3mLXK/agvg0pEIDASAT++OW3v6wpb4lIjqPnaRUDbsUjTYqpmlmJSUjQ76kGop925T58oSDH/VTnphZvCyc3YBAEAhCAQOkE7J33kxiED1qtY2alM6H/EIBAMgROTFJv1nre5ElmMBEUAi0JeFy3rDUew3Kw5QindlmwJJRS6c/UZEfeBQEFDJX7cG6KQYYXAhCAANaRzIGtBELYFLkcH9khC3oKBCAAAdcE7Ll1YALecN2bWOhHWA9OPAI0XwwBu9eke/EWa1Bhyf65bhBQDhYzNb93NEwELaznhXU91e7KWvC9jdss1Q4gNwQgAAEIQKAvAkFJqJAaWssQNqUvsNQDAQgMRcCjhwzWg0ONNvVC4DoBbWp6Kxt1gLgVexuqEeQhK+AIkLs3oQxnp1gKdgdJDRCAAAQgkB8B1jL5jSk9gkCmBLxlLRZmWQ++imEbMuVOtyAwKQG7xxQz+f6kQqxv/HKTTCgHHY7WWCJV4hEqMK2CZJLcYiz4m9tRVrMzy3B2EAIZTy8REkxJAHfLKenTNgQg4J7AylqGmITuRwwBIVAWAWUttoQEci32piS4ryyqfG+UNR/p7TgETDH41lryFg5M35Wvbd30chMF3IrHmR+uWwkuOjMTUkpC4vhMM1paNMxtAbEna0Fe1NMMAq1CAAIQgECaBCoxCd9ZDxSSg/VMmkOZitRs3qUyUhPLGdb02vz3Vp6a0vLYlBhzb4IhDwRSJhBienpTDArp19sUgzoBy8GUZ17PsrP73jPQetVpsXBuSsHvCsEdj2FJ6nWEsyAAAQhAAAJTEwgJABZihAX6Xfunx5g/U6OifQhAYCQCei5VFAaejHMeGIKNLoYj4aEZCORGwGtMz62bFJ4eTrlNimT7U9l9l5/8+2Q74lvwRaKRYCm4j6Wg78FCOghAAAIQSI9AWM9o917rGbn4UCAAAQhMQiDEST2dpPHbG90NsdEcioZIEEiLQLiXPCoHZTX4YhtNlIPbCBX8dwWpDQkxXhWMYYiuK334E9yHh0BLnYkSwD0r0YFDbAikQCCsZw5NVoVPoUAAAhCYisDnqRre0u5z3IudjgxiJUPA7iEZVT13KvC3OnKhHKxDqfBzgm/63DB4faGlMkKKKyjFIIlfro8YiqFUZjByQgACEEiYQNg1j/EIiUmY8FgiOgRSJGAeQz+Z3GdOZVdySgoEINCCgLJ/22WzFpeOdUmt722Ug2MNR+Lt2IJ6344968aRFFyJd2ds8fUhomQjuygGx0ZPexCAAAQgAIG/CQTL/afhfaw1DeFTmCAQgMAoBEIYISVN8lgehbiIHmVDJgh4J+BZMXgU9DhbGaIc3IqIE6oEQvweWb5pQS2lF2U9AVlZHtsxDx8ixBVkpkAAAhCAAAQcEajEJJS7MUpCR2ODKBDIlYAZC/zT+uYx9qCQH5qCkPisuU4++jUIgRBn8N4glXev9CTEO61VE9mKa2HipFUCcZKFHSbdDE+gtCCgLEBnIVYjSCAAAQhAAAIQcE4gBum2NY08I7RxruydrGucjxviQSBFArIetGeNQg3ddyr/M7lIKlarU/kQCwIuCARF+kMTRofX0shSGeWg12FMRK4VJeEDE/txIqL3LaZe8qe2G/iMzMN9o6U+CEAAAhCAwPAEZOkfWwmbnyWva4YHTgsQKJSAwjWFZ4wSJXksL0w+GTycYvDgcXiQaWoCIfnIbGo5trR/YrqJf7+zs1NbTNyKa6PixNsIBNecEmMSLlyHQzxBXIe5TSAAgb4J1Aog3Hej1AeB0glU1jVzY0EYldInBP2HQM8EgoHFSc/V9lndI6tMSkyFkqJAAAKBQLgnvCsGJe2XpkZLWA4yzXslULEk1ItE8yvXzLyKKXixtBRsoJHvFTiV5U4AxVDuI0z/IAAB1wRk4SMBg/uQwqiU6iHhepwQDgKJEpB1niyUPZcDKUPsWejVytEzO2TLjEBQDB4k0K03MWRKE1mxHNxOi4/z7YxunKEXiB0z+4PSeudWPppS8Ik+GJpq43MD0VN/uMd6Akk1EIAABCAwDAF75x+EbH9zawFLwmEwp1Qra5eURsuprPY98dxE++ZUvKpYCwVhAnIiIgQGI5CQYvC4jWJQ4FAODjZ9qFgEbGK+tB+5LKQVV/Cj9ekpSkHmNwQgAAEIQKA8AtoYDLEJld1YVj8UCEAAAq0IhO+JVJ4jUhCSybjVSHNR6gTC3E/BYlCopbNoVVAOtsLGRU0IVBbSeqF8aHKtk3NlIfAhxBXM1U3aCWrEgAAEIAABCPgnoCD9dsjFeG6HQo1QIAABCDQmYN8X+rZolFG0cSP9XaBMxlgQ9seTmhIgEJIHPUtAVInYKQQAMQcTGeUcxIyxKsINprg9y6yATvunnbwze2kfLHb2iCvodJgQCwIQgAAEIDANgUpMQn3c/2gHMQmnGQpahUCSBIL1oKzyXlsH5GbsvUjWN/Z99AJPKu9DhXxdCASdxa7V8bBLPSNeK8Vgp2cIloMjjhZNfScQMgDGXbKPDrnIUlAZiPdkGcCLz+EIIVJuBHZy6xD9gUCPBIht1iPMoaoKloR7Vr82FuXSgzXhULCpFwIZEggxwlKxyjv845ffvpjyxON3XIazgy6NSeDq6monKAaVhCcVxaASkHRSDIoxloNjzjTaukZAwb31i2Ceft/+OfVuuxby51gKMlEhAAEIQAACEGhDILgaLy619Q3WhG0gcg0E/iZQ1OaIPu4TSnqwUJroObf8dmLmQiBxAjaf56b4ll7CexbxKum/7Nnxcx/osRzsgyJ1dCIQMhtrt12L6HmnyppfrPakFFRMQWUgxlKwOUOugAAEIAABCEBghUDFmlBrDSxsmCEQgMBWAiEMk1yMUyn7wYowxbjyqTBGzoEJBGtB6SLk3ZiSYvC0L8WgEGM5OPBEo/r6BCqWhK/sqhf1r2x95qcYK2hRAzEFW4PseGFRu8IdWXF5eQS4P8obc3qcGYFKXEK5DKaS7TCzUaA7EEiHgD0zfjILpjOTWHFMUyiyInwoq8cYYz4FoZERAiIQrAWlEJTFYGqldWbidR3FcjC14S9AXr0QrZvzcAzRY1kKKqYgmYeHoEudEIAABCAAAQjcIBA+mrWQ16H4xhQIQAACmwikaG2sZCV/MqQQSIFAsBbUpp10AikqBt9eM3TqATqWgz1ApIr+CVR22d9a7dG098L+3SbD8dyuu2uHkh4o+/Ah2Yf7HzNqhAAEIAABCEDgdgK2vnkUzwgBz/VBotAqlLQIYNWd1nglJ602E+wZ8d4EnyUm/EuTW4YYp8tvrsQ6gLj5E1CszBBbcPlOTqzXUgwqYUqvBeVgrziprG8C0dW4spBWDA4tpKXsi0VKv7hI08/qgu1CMX+uyYX7cN/DRH0QgAAEIAABCDQkEDML2keKNkK1Jm+zAdqwVU6HAARSISBjiUQVhLvGeDfEIvwcMjGngh05MyYga0Gbl7IW3E+4m3Lf75yZeF3/UQ4mPCtKFJ2XS4mjTp8hAAEIQAAC+RKoxFyWkvBe6OnjfHtMzxIhgHWkg4FKWEEoejEW4Rf7t5SECh1FgcDoBKJS0BSDshRMKeHIKqvBFINqCOXg6FOTBiEAAQhAAAIQgAAEIHCdQNVbQi5P9ld5SWBNyESBQOEEElcQavSkkHlkzzUpCeXxpQyrKVtuFT4j0+h+UAjqXXrPlILKtZGyUlDQB1UMqgESkqQxt5ESAhCAQM4EsE7IeXTpGwQg0JiAQqLYoSDpcn9S/C4KBCBQMIGgTJsnjkBKQlkTzqQoDHFXE+8S4nsjEBKNvDGF4LHmmh2pWwsKsWIMDuJKXB0/lIPeZjPyQAACEPibAEozZgMEIACBggnoY8AOJSz5YIcyHOsnZXoCvJ+nH4PiJAgKwlyeAVLYKOmKlIQKqUCBQGcCNpdem1Lwq+aWHalbCkYeshjsPfnIOti4FXeeglQAAQh0JMACuyNALocABCAAgbwJ2IfBLPbQPn5e2b9f5N1jegcBCKwjoGdBoklKNg1odDmWldfxWEoQZlc+BOx+mFtvpNeSy3qq2Yc3DcjgrsTVhrEczOe+oCcQgAAEIAABCEAAApkTCEH99TH0MfOu0j0IQGANgcwsCGMP5W58YIqeYywJmfZ1CQTXdIXgUIbs3BSDo7gSV1ljOVh35nEeBCAAAQhAAAIQgAAEHBCIwfzlQmXi3LeDxCUOxgURIDAWgWBBqE0CKUZyKtUMx7IEu/z1X78/2dnZwdMop1Fu2ZdKkpFoKSilYG5FiXvOprCiRTmY21SiPxCAAAQgAAEIQAACRRCwj4eFe3FwM1R2Y31AoygsYvTpZOkEgoJQMQh13+emJFxagVkMOcUl/DJGQobS55TX/od33H2bCxJRCuRcy182z3+eqnMoB6ciT7sQgAAEIAABCEAAAhDogUC0JAyKQlkT3stQWdADKapoQABLrQawpjo1ZDXXBkHOsUir1oSal7KW/lx97k3Fn3aHIxAUgtJXKRRebi7D68ApvuBkikEJhHJwuPlMzRCAAAQgAAEIQKArAT7QuxIs7PqKNaEygMqaMDeLosJGlO5CYDsBxSINyhSdPNt+RZJnVBVESsyiJCYqpygKkxzPG0KHeJNSBsulPJdsw9sGR/GDzz1YxqIc3DZU/B0CEBiagB7+FAhAAAIQgAAEeiRgHxoHqi5YFOkjC3fj/viitO+PJTX1RKASi/RPq/JlT9V6ria6lz4MisKLoFCSC/K+Z8GRbfFuemccZAWq5+k3O7SZVYKFYHX4lXTk0Mt8QDnoZSSQAwIQgAAEIAABCEAAAj0TCNmN9SF2ZFX/iJKwZ8BUBwFnBOSaGBQvJSnIqnHoZFWopA5SOEnZ9MWSmjwlqcl0E7WSSETjcRreRaVYBm4C/96TYlBCyn+bAgEIQAACEJiSABYYU9KnbQhAoAgC+ggJ8cneWIeVxIACAQhkSsDu9WfWtfd2yGWxxCIl1OOg79izRBZfTWF4YscnKapKBDJVn7UxZfxPrP2ZHYqHu2dHyYrBz3oHh3t0qmFZ2y6Wg9uHg4/W7Yw4AwIQgAAEIAABCEAgAQIrMQllKKAPNgoEIJAZgah8MOWMkhQ9z6x7Tbsj91UVZbw9NSb6xpcltRSFn7AsbIrz5vkhXuBu+IveLZd2yFVYnCnfCbyJ72CPQFAOehwVZIIABCAAAQhAAAIQgMCABCoxCaU40MfbbMDmqBoCEJiIgJQRwc1YEpTkaryJ+KqySpaFsiqUMkv6ESkOpTQkduEKweAePLdfS9kqt20pAc/Dz9V4gSgF/+Yna0Elznkx0WOgVrMoB2th4iQIQAACEBiQAO4dA8KlaghAAAK3EahYEsrVWM9jfRiTvIRpA4GMCGBFuHUw5e66WmJG5Grm3KpXYZZWh6Yk1btAbr9S/sU1un5emhJVysBohRl5rf5/K+zCTjjykIm4DnOUg3UocQ4EIAABCEAAAhCAAAQyJhDiES56aB+Hf4WPw6cZd5muQaA4AsGK8K11XHoANgG2z4BqohOdvbqhLavDY3tmSpEmBeOq8jCer9/Hv32Kltvbm+92hsk1txrUB8mn9qXcqyr8YgP63Vn422qfuwlR7tXH1nVZCybj0o9ycPtkxaJlOyPOgAAEIAABCEBgGAKsQ4bhSq23ELCPmZf6c4ghpZhRKAnLmzE8ezId80pIAWUw1/09y7SrY3WraXKNZyGbsuSrWizqnosJY6MVd9P8B/H8qOhrIhu6oX5mjDJlH1scy59Sy5DNBOhnAlALBCAAAQhAAAIQgAAEsiJQUSK8s47FWFxYG123DspqzOlMOQSUwTxsAryyn4oPRzzC8YZ/NT7fupalIGyrpMf6b7yxjC0pruD5MgvxTtuhG1/w2CLKwenY0zIEIAABCEAAAhCAAATcE1h+7JikZvEia6MD90IjIAQgUIuA3d8/BSUh93YtYpwEgRsEXsf7KGU20Ww15T4gOwQgAAEIQAACEIAABCAwAoFgbfTRmpKVRKmlqatfqZzod0IEwr09N5F1UCAAge0EFFfwbQ6KQXUVy8HtA84ZEIAABCAAAQhAAAIQgEAgEJOXmBXhe/uVjA1wNWZ2QCADAnZvL1yLQ7xR+UXiapzBuNKF3gks4goqwU/vNU9YIcrBCeHTNAQgAAEIQAACEIAABFIlUFEkSEkYYxLupdqfBnIr8ycFAtkSqMQbVeZyxSN8lm1n6RgE6hOQpaCUgslkIK7fNSwHm7DiXAhAAAIQgAAEIAABCEBghUBUEurXweJI1oSzjEHhVpzx4NK1vwlUMpfP7bcxgy7Zy5kkpRH4ZB3+YvfDzzl3HMvBnEeXvkEAAhCAAAT8E0gvndu4TOEzLm9a60igYnGUcwZUMoF2nCdcnhYBu6+Xyn7bAPjTpNc9gJIwrWFE2mYEvtrp2uj6HDN7N7s8vbNRDqY3ZkgMAQhAAAIQgAAEIAAB1wQqGVCVvEQfWGd25BK/TG7UuRc2JnIf4Zb9i9ZTpiT8YFXctePcjlnL6rgMAp4InJgwevZ9rVrEexJwSFlQDm6ni9vAdkacAYEuBFh8dqGXx7XMgTzGkV5AAAIQuEHAPrCWyUpMmSBrwtQDuH/99V+/v7izw6trhOkO5BEgt20iJibS9XZvv7YfWcZha8uH65IjMC9RIVgdJe3iUSAAAQhAAAIQ8EmghA+jEvroc3YhFQRGJhCsCWVJKIujVMvbnZ0djAdSHT3kHoRAyNqqZA3K4pry/T0IHyp1S2CRYERztnTFoEYIy8Ht85SPlu2MOAMCEIBAFwI8Z7vQS/9axv/2MYRP+nOcHlQIRGsjszR6Y79WFlTN8aV1oXNYshr8P4VYDXp49niQwfmU9COe3du7UZpgSXgvsfvbD0wkGZKAlIEqpzZnycJdIY1ycMhpR90QgEAdAiz86lDK+xzmwObxLYFNCX3scgfDpws9rnVLwD7Kli6Ipkh4F5QIM7cCfxfsE1aDzkcI8VwQCJaEC1ns/lamV5ULO7zf4y74IcQgBD5brScKC8FzfD1flIODzDsqhQAEIAABCEAAAhCAAATqEIjWG8Ha6L5d49GS8E1MslKnT5zTCwE2R3rBOG0ldt/sRQmCxXC0KFz+floJaT1TArIQVBi9b3Yowcjhop/Ei9043CgHt98JxBTZzogzINCFAPfYZnqlsGHx3+UO4loIQAACmRCI1kbBklAfdU+ddE2KwdQTqThBiRglE1ixGJYllxQ3Orzc6yUPTw5915zS99O5zbWDHDo0Zh9QDo5Jm7YgAAEIQAACEIAABCAAgVsJVCwJj+xEWRmpTGVldIRicLIJy+bhZOiHb9juq8exlWBRKKthFY378m/DS0ILCROICmbNmROe1d1GEuVgN35cDQEIdCdQinVcd1L51qA5wAdAvuNLzyAAAQi0IrB0A7OrTXnw3n7IwmjMAPJSDC5jI7bqRLoXeVifeZAh3RFMSPLV+8zud7mEamPgzI5zOzyGGkiIcDaiKhu2vhmkx5Kr8CybnjnoCMrB7YPAS2k7I86AQBcC3GOb6ZXCRh97ch+jlEkA5fDt417Kc6DM2U+vaxOwj8B9nWxKg1f2YwwX33nBikGh9vDs8SBD7TnKif0RsHvvUbW2imUhVoX9YU6lphg7UMrAMTeHUuHTm5woB3tDSUUQgEBLAiz8UA5KOUgpl4DG/2653d/ac56RWxFxQkkElBSkkv300vred6wyuamdVq0WS+Jb6auHdzPPv0In32q3V2IVKvtx3FRWBmSsCvOaJ3oGSwmstaFchRcbQ5ThCaAc3M6Yl9J2RpwBAQhAoAsBnrOb6ZXABuVgl7uHayFQIIGV7KeyJFSssq5KQikcjq3ulwUiXddlD+8fDzIwHZwRqN7/Es02CxSb9EEQU2sKzRsUhs7GbYM4sgqsbkSckUhkuoFDObidfXzQbD+TMyAAgTYEdttcVMg1pTx/YgDqQoa1UTdLcLf+sRGR8k4u5TlQ3sjS414IyJIwKAhkbaLnSYxRdpu1ieJWVUManP76r98Pd3Z2UEb9PSoe1mcPe5kkVJI1gVUr36urq50/fvlNzwOtL2VdrCIF1Ikds6xh+O3cVxMtWgPGDNWyCsRN2NGYReWgXoSLlM/hxqkr4qYX6Lrfr/6uzsu3zzhE1WD38d/6GQ+1pYkq02T9W2as4nNaFwbnQQACrQjo5a37TffftqQUdZ4bdYToq546bemc1X6tPoPioiUuYGKg3VKeP1qsxWdwHJv4bI6M43uqyrzPceyzrqqM6+b0uveRrlntuxSD2lHNvWiex4Vik/GvMuuDUZs5sOmZVe3HbbKtXh/neVz/6NkoRQcFAhDYQqCa+VSnhtiEilu2usmiuFWHN6rb2bYEKW4IPgR20RJLHFffzV2fw1Xo1eef6uU7rLgp10+Hg5J/rXLbnguvrRUpnTWfq+/quA7B4rD9MER379W1nJSAB+2r5cqxCPAWHIs07UAAAhCAAAQgAAEIQAACEIAABCDgkoApD+dBMR037KVElKJaykMZUnUNX+Cy3zWEkuIvGlDp9OgKHPVJ2nQZI1FUDVE5pS0BlINtyXEdBCAAAQhAAAIQgAAEIAABCEAAAkUQMOXhW+uown1ES8OqNW3VMyh6AETPmD0ngOTeG60mo1XwJm+HqACU4m8RvoGSNwGUg3mPL72DAAQgAAEIQAACEIAABCAAAQhAYCICplSsEz5paOnOTcl3b+hGqD9dAv8L8yg4mtTRAsUAAAAASUVORK5CYII=;" parent="1" vertex="1">
          <mxGeometry x="248.89" y="836.93" width="107" height="16.13" as="geometry" />
        </mxCell>
        <mxCell id="PT-G1VSfNcF728A1zNsx-12" style="edgeStyle=orthogonalEdgeStyle;rounded=0;orthogonalLoop=1;jettySize=auto;html=1;entryX=0.5;entryY=0.12;entryDx=0;entryDy=0;entryPerimeter=0;" parent="1" source="PT-G1VSfNcF728A1zNsx-13" target="PT-G1VSfNcF728A1zNsx-2" edge="1">
          <mxGeometry relative="1" as="geometry">
            <mxPoint x="320" y="615" as="sourcePoint" />
          </mxGeometry>
        </mxCell>
        <mxCell id="PT-G1VSfNcF728A1zNsx-13" value="" style="shape=image;verticalLabelPosition=bottom;labelBackgroundColor=default;verticalAlign=top;aspect=fixed;imageAspect=0;image=data:image/svg+xml,PHN2ZyB4bWxucz0iaHR0cDovL3d3dy53My5vcmcvMjAwMC9zdmciIHdpZHRoPSIyNTUuNjE1MjQ5NjMzNzg5MDYiIHZpZXdCb3g9IjAuMjYzNzUxMDI5OTY4MjYxNyAwLjMwMTk5NDMyMzczMDQ2ODc1IDI1NS42MTUyNDk2MzM3ODkwNiAzMTMuODM1OTk4NTM1MTU2MjUiIHByZXNlcnZlQXNwZWN0UmF0aW89InhNaWRZTWlkIiBoZWlnaHQ9IjMxMy44MzU5OTg1MzUxNTYyNSI+JiN4YTsgPGcgdHJhbnNmb3JtPSJ0cmFuc2xhdGUoMCAyODEuODYpIiBmaWxsPSIjMWExOTE4Ij4mI3hhOyAgPHBhdGggZD0ibTY3LjUxNjggMzIuMDAzNWMtLjU0MTUyIDAtMS4xMjYxNy0uMTM2ODUtMS41MzIxMi0uNjg1ODNsLTE3LjM4MzUtMjIuODYxMnYyMy4zMTg3aC0zLjk2NDMxdi0yOC43MTQyYzAtMS4xNDI1My45NDU5Mi0yLjA1NzEgMi4wMjc4LTIuMDU3MS42Mjk3MSAwIDEuMTcwODQuMTgyNiAxLjU3NDg1LjczMTU4bDE3LjMzOTYgMjIuODE1OXYtMjMuMjI3NmgzLjk2MzkydjI4LjY2ODFjMCAxLjE4OTA3LS45NDU5MiAyLjAxMTc1LTIuMDI2MjUgMi4wMTE3NSIvPiYjeGE7ICA8cGF0aCBkPSJtMTAwLjMwNiAzMi4yNzhjLTMuOTYyNzYgMC04LjEwNjkzLS44MjM0Ny0xMS45ODAzLTIuMjg1ODRsLjk0NjMxLTMuMjkyN2MzLjU1Nzk3IDEuMTQzMzIgNy40MzA5OSAxLjk2NjM5IDExLjAzNCAxLjk2NjM5IDQuOTk5NTggMCA3LjYxMTYzLTEuNzgzNCA3LjYxMTYzLTQuMjk3NTkgMC0yLjI4NjYzLTIuMDI3NDEtMy40Mjk1Ni05LjAwODE3LTYuNzIxODctNi45ODA3Ni0zLjI5MTkyLTkuNzI3MjItNS4zOTQ3Ny05LjcyNzIyLTkuNTEwNTUgMC01LjE2NTYzIDMuOTYyNzYtNy4yNzAwNiAxMS40Mzg0LTcuMjcwMDYgMy4xMDgxMyAwIDcuODgxNjIuNjQwODcgMTAuNjMgMS40NjM5NWwtLjYzMDg3IDMuMzgzMDJjLTMuMDE4MzktLjczMTE5LTYuODAwNTEtMS4yMzQwMi05LjkwODY0LTEuMjM0MDItNS4yNjgzOSAwLTcuNDMwNiAxLjAwNTI4LTcuNDMwNiAzLjUyMDY2IDAgMi40Njg0NCAxLjU3NTYyIDMuNTIwMjYgOC45NjE5NCA2Ljk0OTgyIDcuNzkxODggMy42MTIxNiA5Ljc3MzQ1IDUuNDQxMyA5Ljc3MzQ1IDkuMTg5OTIgMCA1LjQ0MTctNS4xMzUxNSA4LjEzODg4LTExLjcxIDguMTM4ODgiLz4mI3hhOyAgPHBhdGggZD0ibTEzMC43OTggMS4zMjM2N2g0LjA5ODMzdjMwLjQ1MTFoLTQuMDk4MzN6Ii8+JiN4YTsgIDxwYXRoIGQ9Im0xNjkuNzU4IDE3Ljk2NjloLTEwLjE3OTh2MTAuMzM0aDEwLjE3OThjMy40Njc0NiAwIDUuNTg0MjItMi4xOTUxNCA1LjU4NDIyLTUuMjU5MSAwLTIuODgwNTctMi4yMDY1LTUuMDc0OTItNS41ODQyMi01LjA3NDkybS0xLjk4Mjc0LTEzLjE2ODVoLTguMTk3MDV2OS43MzkyOWg4LjE5NzA1YzMuMjg4MzggMCA1LjY3NTEyLTIuMTAzNjQgNS42NzUxMi01LjAyOTU3IDAtMi44ODA1Ny0yLjA3MjA4LTQuNzA5NzItNS42NzUxMi00LjcwOTcybTIuMDI3NDEgMjYuOTc2NmgtMTIuMjQ5OWMtMS4xNzE2MiAwLTIuMDcyNDctLjkxNDk3LTIuMDcyNDctMi4wNTc1di0yNi4zMzYxYzAtMS4wOTc5Ni45MDA4Ni0yLjA1NzUgMi4wNzI0Ny0yLjA1NzVoMTAuMTMzMmM2LjIxNTA5IDAgOS45MDc4NiAzLjA2MzE3IDkuOTA3ODYgNy44NjQzOSAwIDIuNjA1NjktMS41MzEzNCA1LjAyOTE3LTMuODczOCA2LjQ0NjU5IDMuNDY5NCAxLjA1MTgyIDUuODA5OTIgMy45MzIgNS44MDk5MiA3LjQwNjkxIDAgNC44NDY1Ny00LjAwNzQzIDguNzMzMjItOS43MjcyMiA4LjczMzIyIi8+JiN4YTsgIDxwYXRoIGQ9Im0xOTkuMjEyIDMxLjc3NTFjLTEuMTI0MjIgMC0yLjAyNTQ3LS45NjAzMi0yLjAyNTQ3LTIuMDU3NXYtMjguMzkzNmg0LjA5NzU1djI2Ljc0NzloMTYuMzA0djMuNzAzMjZoLTE4LjM3NjF6Ii8+JiN4YTsgIDxwYXRoIGQ9Im0yNDUuNTI2IDMyLjI3OGMtOC4zNzczIDAtMTMuNDIxNS0zLjEwODkyLTEzLjQyMTUtOS4zNzI5MSAwLTIuOTcyMDcgMS42NjY5MS01LjgwNjkgNC45MDk4NC03LjEzMjgxLTIuNjEyNDQtMS42NDYxNi0zLjk2MzE0LTMuOTc4MTQtMy45NjMxNC02LjUzODQ4IDAtNS42NjkyNiA0LjM2OTg3LTguMzY4MDIgMTIuNTY1OC04LjM2ODAyIDIuNzQ3NjMgMCA2LjYyMDI2LjMyMDYzIDkuODYzNTggMS4wNTI2MWwtLjQ1MTAxIDMuMzgzMDJjLTMuNDIyMDEtLjU0ODk4LTYuNjIxMDQtLjg2ODA0LTkuNzI4MzktLjg2ODA0LTUuMzE0NjIgMC04LjE1MjM4IDEuNDYyMzctOC4xNTIzOCA0Ljk4MzQzIDAgMi43ODk0NyAyLjYxMjgzIDQuOTgzODIgNi4wODE0NiA0Ljk4MzgyaDcuMDI1MDRjLjk5MDk4IDAgMS43NTYyNi43NzczMyAxLjc1NjI2IDEuNzM3MjYgMCAxLjAwNTY4LS43NjUyOCAxLjc4MzAxLTEuNzU2MjYgMS43ODMwMWgtNy41NjUwMWMtMy45NjQ3IDAtNi40ODU0NiAxLjk2NTYxLTYuNDg1NDYgNC45ODQyMSAwIDQuNDM0ODQgNC4wOTgzMyA1Ljc2MDc1IDkuMjMyMzIgNS43NjA3NSAyLjc5MjY5IDAgNi41NzQ0Mi0uMzY0OCA5LjYzNjcxLTEuMDk2NzhsLjU4Njk3IDMuMzM3MjdjLTIuOTI4MjcuODIzNDctNi43NTcgMS4zNzE2Ni0xMC4xMzQ3IDEuMzcxNjYiLz4mI3hhOyAgPHBhdGggZD0ibTE0LjEzOCA3LjAzNDcgNy4xNzc3MSAxNy45ODQzLTEwLjg0MDYtOC42NjkzMyAzLjY2Mjg2LTkuMzE0OTN6bTEyLjc1MTQgMjIuMTI3Ny0xMS4wMzk5LTI2Ljk3NDZjLS4zMTUwNS0uNzc3MzMtLjk0NTkyLTEuMTg5MDctMS43MTE1OS0xLjE4OTA3cy0xLjQ0MTIxLjQxMTc0LTEuNzU2MjYgMS4xODkwN2wtMTIuMTE3OSAyOS41ODc0aDQuMTQ0NTZsNC43OTc1Ny0xMi4xOTgzIDE0LjMxNDIgMTEuNzQwOGMuNTc1NzEuNDcyMDguOTkwOTguNjg1ODMgMS41MzIxMi42ODU4MyAxLjA4MDMzIDAgMi4wMjYyNS0uODIyNjggMi4wMjYyNS0yLjAxMTM1IDAtLjE5Mjg1LS4wNjc5OC0uNDk5NjgtLjE4OTE4LS44Mjk3OHoiLz4mI3hhOyA8L2c+JiN4YTsgPHBhdGggZmlsbD0iIzFhMTkxOCIgZD0ibTI1NS44NzkgMTI3Ljg2OGMwIDcwLjQ1NTEtNTcuMTEwMSAxMjcuNTY1LTEyNy41NjYgMTI3LjU2NS03MC40NTAxIDAtMTI3LjU2Ni01Ny4xMDk2LTEyNy41NjYtMTI3LjU2NSAwLTcwLjQ1MDEgNTcuMTE2MS0xMjcuNTY2IDEyNy41NjYtMTI3LjU2NiA3MC40NTYxIDAgMTI3LjU2NiA1Ny4xMTYxIDEyNy41NjYgMTI3LjU2NiIvPiYjeGE7IDxwYXRoIGZpbGw9IiNmZmYiIGQ9Im0xMzAuNDYgNzguMjI4OSAzMy4wMTE2IDgxLjQ3NjMtNDkuODYzNS0zOS4yNzc4IDE2Ljg1MTktNDIuMTk4NHptNTguNjQ0NSAxMDAuMjQ1LTUwLjc3ODYtMTIyLjIwMmMtMS40NDk1Mi0zLjUyNDM2LTQuMzQ4MDctNS4zODkyNi03Ljg2NTkxLTUuMzg5MjYtMy41MjQzNiAwLTYuNjMzODYgMS44NjQ4OS04LjA4MzM5IDUuMzg5MjZsLTU1LjczMjkgMTM0LjA0aDE5LjA2NTNsMjIuMDYyMy01NS4yNjUzIDY1LjgzODkgNTMuMTg5OWMyLjY0NzkyIDIuMTQxMTQgNC41NTg1MiAzLjEwOTUgNy4wNDIyIDMuMTA5NSA0Ljk3Mzg5IDAgOS4zMjE0Ni0zLjcyODc4IDkuMzIxNDYtOS4xMTEwMSAwLS44NzU5NC0uMzA5MzktMi4yNjYyLS44Njk0MS0zLjc2MTQzeiIvPiYjeGE7PC9zdmc+;" parent="1" vertex="1">
          <mxGeometry x="256" y="440" width="128" height="157" as="geometry" />
        </mxCell>
        <mxCell id="8nJYiIIYSTlW2Ok84LjC-1" value="Upload Service Account Password and Keys to S3" style="whiteSpace=wrap;html=1;" vertex="1" parent="1">
          <mxGeometry x="260" y="1145" width="120" height="60" as="geometry" />
        </mxCell>
        <mxCell id="8nJYiIIYSTlW2Ok84LjC-3" value="" style="outlineConnect=0;dashed=0;verticalLabelPosition=bottom;verticalAlign=top;align=center;html=1;shape=mxgraph.aws3.s3;fillColor=#E05243;gradientColor=none;" vertex="1" parent="1">
          <mxGeometry x="377" y="818.5" width="48" height="53" as="geometry" />
        </mxCell>
      </root>
    </mxGraphModel>
  </diagram>
</mxfile>
